<?xml version="1.0" encoding="UTF-8"?>
<svg version="1.1" xmlns="http://www.w3.org/2000/svg" width="500" height="500">
<path d="M0 0 C165 0 330 0 500 0 C500 165 500 330 500 500 C335 500 170 500 0 500 C0 335 0 170 0 0 Z " fill="#FEFEFE" transform="translate(0,0)"/>
<path d="M0 0 C1.17626953 -0.020625 2.35253906 -0.04125 3.56445312 -0.0625 C15.68960096 -0.1167209 25.86817757 3.01388662 34.90234375 11.4296875 C41.7311993 18.76484156 42.88471174 24.64608383 42.75 34.4375 C42.7490332 35.79004883 42.7490332 35.79004883 42.74804688 37.16992188 C42.7034337 43.8271989 42.7034337 43.8271989 41.5625 47.25 C40.9025 47.25 40.2425 47.25 39.5625 47.25 C39.5625 48.24 39.5625 49.23 39.5625 50.25 C36.2625 50.25 32.9625 50.25 29.5625 50.25 C30.04828543 47.12709365 30.5611012 44.25419641 31.5625 41.25 C32.09371088 32.21941503 32.32649834 22.74319784 26.5625 15.25 C21.27085075 9.6395767 15.84025007 6.65437214 8.5625 4.25 C7.5725 3.92 6.5825 3.59 5.5625 3.25 C2.44191938 3.01992002 -0.68430926 3.06481718 -3.8125 3.0625 C-5.05966797 3.04413086 -5.05966797 3.04413086 -6.33203125 3.02539062 C-13.71157269 3.00854236 -19.91204022 4.09223696 -27.4375 5.25 C-27.4375 19.77 -27.4375 34.29 -27.4375 49.25 C-30.7375 49.25 -34.0375 49.25 -37.4375 49.25 C-37.45208252 48.29746338 -37.46666504 47.34492676 -37.48168945 46.36352539 C-37.5401689 42.7904115 -37.61739273 39.21789553 -37.69995117 35.64526367 C-37.73296921 34.10630074 -37.76107122 32.56722344 -37.78393555 31.02807617 C-37.8684489 18.81357371 -37.8684489 18.81357371 -41.4375 7.25 C-43.785006 5.63937929 -45.64994525 5.03893059 -48.4375 4.25 C-48.4375 3.59 -48.4375 2.93 -48.4375 2.25 C-47.66148437 2.22494385 -46.88546875 2.1998877 -46.0859375 2.17407227 C-42.53632269 2.05732255 -38.98692232 1.9349569 -35.4375 1.8125 C-33.60638672 1.75352539 -33.60638672 1.75352539 -31.73828125 1.69335938 C-24.54891998 1.47531102 -24.54891998 1.47531102 -17.40234375 0.73046875 C-11.60277188 0.02766349 -5.83682411 0.02550224 0 0 Z " fill="#0E0E0E" transform="translate(178.4375,179.75)"/>
<path d="M0 0 C10.89 0 21.78 0 33 0 C33 0.66 33 1.32 33 2 C31.3603125 2.2165625 31.3603125 2.2165625 29.6875 2.4375 C27.72022264 2.96109348 27.72022264 2.96109348 26 4 C21.86533564 12.49903231 22.44171893 21.80986675 22.3125 31.0625 C22.27927492 32.70770864 22.24478059 34.35289217 22.20898438 35.99804688 C22.12467507 39.99855817 22.05758868 43.99901849 22 48 C18.37 48 14.74 48 11 48 C10.96241577 46.61663452 10.96241577 46.61663452 10.92407227 45.20532227 C10.82825232 41.74428842 10.72906582 38.28338353 10.62768555 34.82250977 C10.58469436 33.33198748 10.54299864 31.8414272 10.50268555 30.35083008 C11.02831391 16.0793138 11.02831391 16.0793138 7 3 C3.43793339 2.18129815 3.43793339 2.18129815 0 2 C0 1.34 0 0.68 0 0 Z " fill="#0E0E0E" transform="translate(273,182)"/>
<path d="M0 0 C4.47234711 -0.60528006 8.546685 -0.83010209 13 0 C16.2973467 2.7882411 18.00375893 6.21472263 20 10 C21.17231034 11.88453435 22.35983299 13.75969217 23.5625 15.625 C24.14 16.54023438 24.7175 17.45546875 25.3125 18.3984375 C27.70028438 22.07960508 30.28084132 25.55913433 33 29 C33.47050781 29.6290625 33.94101563 30.258125 34.42578125 30.90625 C37.56145918 34.89557611 40.50991178 37.14534616 45.16796875 39.17578125 C47 40 47 40 50 42 C31.85432713 43.43915654 31.85432713 43.43915654 26.2109375 40.59375 C24.05338311 38.20666855 22.58980584 35.80326383 21 33 C20.06695361 31.59120923 19.12334117 30.18938528 18.171875 28.79296875 C9.88312339 16.49785449 9.88312339 16.49785449 8 11 C7.34 11 6.68 11 6 11 C4.74609375 9.35546875 4.74609375 9.35546875 3.4375 7.1875 C3.00308594 6.47980469 2.56867188 5.77210938 2.12109375 5.04296875 C1 3 1 3 0 0 Z " fill="#0C0C0C" transform="translate(179,263)"/>
<path d="M0 0 C4.62578493 -0.97881029 8.41209145 -1.2654561 13 0 C18.28265278 4.70348609 22.4990136 12.11066241 24 19 C24.66 19 25.32 19 26 19 C26.88132477 20.30436066 27.75497469 21.61423664 28.6015625 22.94140625 C30.43472442 25.6399435 32.413542 28.19147502 34.4375 30.75 C35.54931641 32.16539062 35.54931641 32.16539062 36.68359375 33.609375 C39.06256809 36.06457281 40.76359721 37.01823408 44 38 C44 38.66 44 39.32 44 40 C46.31 40.33 48.62 40.66 51 41 C51 41.33 51 41.66 51 42 C47.64650673 42.17576433 44.29421021 42.28132437 40.9375 42.375 C39.99455078 42.42527344 39.05160156 42.47554688 38.08007812 42.52734375 C33.31452608 42.62697202 29.92980486 42.5186659 26.12890625 39.45703125 C22.81758561 36.11765274 20.36124619 32.35812453 18 28.3125 C17.14487923 26.89692515 16.28940873 25.48156151 15.43359375 24.06640625 C15.02222168 23.37691895 14.61084961 22.68743164 14.18701172 21.97705078 C12.52335543 19.20611523 10.79809428 16.47631406 9.0625 13.75 C8.53785156 12.91984375 8.01320313 12.0896875 7.47265625 11.234375 C6.02155625 8.96880633 6.02155625 8.96880633 4.30859375 6.828125 C3 5 3 5 3 3 C2.01 2.67 1.02 2.34 0 2 C0 1.34 0 0.68 0 0 Z " fill="#0D0D0D" transform="translate(321,263)"/>
<path d="M0 0 C3.63 0 7.26 0 11 0 C11.01401855 1.29248657 11.01401855 1.29248657 11.02832031 2.61108398 C11.07268242 5.84886581 11.13445068 9.08574648 11.20751953 12.32299805 C11.23551371 13.71643218 11.25683406 15.11001875 11.27099609 16.50366211 C11.24545407 28.37678945 11.24545407 28.37678945 16 39 C19.07471774 40.66916219 19.07471774 40.66916219 22 41 C22 41.33 22 41.66 22 42 C11.11 42 0.22 42 -11 42 C-11 41.34 -11 40.68 -11 40 C-9.88625 39.5875 -8.7725 39.175 -7.625 38.75 C-5.37535602 37.76578076 -4.19002629 37.23321409 -2.625 35.3125 C-0.58703638 27.77203459 -0.70837135 19.75313745 -0.4375 12 C-0.39431641 10.84371094 -0.35113281 9.68742187 -0.30664062 8.49609375 C-0.20132138 5.6641763 -0.10023253 2.83210205 0 0 Z " fill="#0E0E0E" transform="translate(141,263)"/>
<path d="M0 0 C1.93559313 -0.13504138 3.873872 -0.23201129 5.8125 -0.3125 C6.89144531 -0.37050781 7.97039062 -0.42851562 9.08203125 -0.48828125 C12 0 12 0 13.8671875 2.1171875 C15.16859111 5.42903531 15.36688812 7.88553755 15.3125 11.4375 C15.30863281 12.52933594 15.30476563 13.62117187 15.30078125 14.74609375 C14.54542769 22.9176459 10.54612428 30.53816391 4.69921875 36.24609375 C-2.33664307 42.03453994 -10.29606099 48.17097604 -19.625 48.0625 C-20.62789063 48.05347656 -21.63078125 48.04445312 -22.6640625 48.03515625 C-23.43492187 48.02355469 -24.20578125 48.01195312 -25 48 C-22.04299379 45.69242973 -18.97604839 43.78297719 -15.75 41.875 C-8.58719669 37.3551562 -0.92587961 30.52515679 1.56420898 22.08837891 C2.27542849 18.68010348 2.37558703 15.21861443 2.5625 11.75 C2.60568359 11.00492188 2.64886719 10.25984375 2.69335938 9.4921875 C2.79896725 7.661651 2.89994201 5.83084824 3 4 C2.34 4 1.68 4 1 4 C0.67 2.68 0.34 1.36 0 0 Z " fill="#0D0D0D" transform="translate(345,182)"/>
<path d="M0 0 C3.63 0 7.26 0 11 0 C11.01981934 0.76554199 11.03963867 1.53108398 11.06005859 2.31982422 C11.15619205 5.83852104 11.26550916 9.35669448 11.375 12.875 C11.4059375 14.07898438 11.436875 15.28296875 11.46875 16.5234375 C11.56644122 26.95852888 11.56644122 26.95852888 14 37 C16.52726569 39.27582337 18.90967179 40.4548359 22 42 C11.11 42 0.22 42 -11 42 C-11 41.34 -11 40.68 -11 40 C-7.535 39.505 -7.535 39.505 -4 39 C-4 38.34 -4 37.68 -4 37 C-3.34 37 -2.68 37 -2 37 C-1.24834398 32.23059541 -0.82854676 27.57877082 -0.68359375 22.75390625 C-0.6524221 21.76994118 -0.6524221 21.76994118 -0.62062073 20.76609802 C-0.55594062 18.69832454 -0.49662534 16.63043899 -0.4375 14.5625 C-0.39423693 13.14907758 -0.35062035 11.73566593 -0.30664062 10.32226562 C-0.20034484 6.88162529 -0.09885528 3.44086308 0 0 Z " fill="#0A0A0A" transform="translate(284,263)"/>
<path d="M0 0 C9.9 0 19.8 0 30 0 C27 2 27 2 21 3 C21 17.52 21 32.04 21 47 C17.7 47 14.4 47 11 47 C10.98541748 46.04746338 10.97083496 45.09492676 10.95581055 44.11352539 C10.8973311 40.5404115 10.82010727 36.96789553 10.73754883 33.39526367 C10.70453079 31.85630074 10.67642878 30.31722344 10.65356445 28.77807617 C10.5690511 16.56357371 10.5690511 16.56357371 7 5 C4.652494 3.38937929 2.78755475 2.78893059 0 2 C0 1.34 0 0.68 0 0 Z " fill="#050505" transform="translate(130,182)"/>
<path d="M0 0 C7.875 0 7.875 0 11 2 C11.125 4.875 11.125 4.875 11 8 C10.34 8.66 9.68 9.32 9 10 C9.66 11.32 10.32 12.64 11 14 C10.01 13.67 9.02 13.34 8 13 C7.67 12.34 7.34 11.68 7 11 C4.47266765 10.34444881 4.47266765 10.34444881 2 10 C2 11.32 2 12.64 2 14 C1.34 14 0.68 14 0 14 C0 9.38 0 4.76 0 0 Z " fill="#535353" transform="translate(363,239)"/>
<path d="M0 0 C7 0 7 0 10 2 C10.25660094 5.07921132 10.39431504 7.21136993 9 10 C9.39938767 12.09821215 9.39938767 12.09821215 10 14 C9.01 13.34 8.02 12.68 7 12 C7 11.34 7 10.68 7 10 C5.35 10 3.7 10 2 10 C2 11.32 2 12.64 2 14 C1.34 14 0.68 14 0 14 C0 9.38 0 4.76 0 0 Z " fill="#474747" transform="translate(126,239)"/>
<path d="M0 0 C0.99 0 1.98 0 3 0 C3.86627399 1.59766103 4.71766465 3.20339944 5.5625 4.8125 C6.27599609 6.15248047 6.27599609 6.15248047 7.00390625 7.51953125 C8 10 8 10 7 13 C6.67 12.01 6.34 11.02 6 10 C3.03 10 0.06 10 -3 10 C-3 10.99 -3 11.98 -3 13 C-3.66 13 -4.32 13 -5 13 C-4.54554036 11.58208592 -4.08625056 10.16571954 -3.625 8.75 C-3.24214844 7.56664062 -3.24214844 7.56664062 -2.8515625 6.359375 C-2.04826333 4.13372042 -1.10288338 2.09068328 0 0 Z " fill="#4A4A4A" transform="translate(188,240)"/>
<path d="M0 0 C0.99 0 1.98 0 3 0 C3.64995297 1.41478135 4.29478722 2.83191487 4.9375 4.25 C5.29714844 5.03890625 5.65679687 5.8278125 6.02734375 6.640625 C6.90033279 8.75823698 7.51338508 10.76669362 8 13 C7.34 13 6.68 13 6 13 C5.67 12.34 5.34 11.68 5 11 C3.10466658 10.53476937 3.10466658 10.53476937 0.9375 10.375 C-0.361875 10.25125 -1.66125 10.1275 -3 10 C-3.33 10.99 -3.66 11.98 -4 13 C-4.66 12.67 -5.32 12.34 -6 12 C-4.02 8.04 -2.04 4.08 0 0 Z " fill="#474747" transform="translate(347,240)"/>
<path d="M0 0 C0.66 0 1.32 0 2 0 C3.2890625 1.75 3.2890625 1.75 4.625 4 C5.07101562 4.7425 5.51703125 5.485 5.9765625 6.25 C6.31429688 6.8275 6.65203125 7.405 7 8 C7.33773438 7.4225 7.67546875 6.845 8.0234375 6.25 C8.46945312 5.5075 8.91546875 4.765 9.375 4 C9.81585938 3.2575 10.25671875 2.515 10.7109375 1.75 C11.34902344 0.88375 11.34902344 0.88375 12 0 C12.66 0 13.32 0 14 0 C14 4.29 14 8.58 14 13 C13.34 13 12.68 13 12 13 C11.67 10.69 11.34 8.38 11 6 C9.515 8.475 9.515 8.475 8 11 C4.26360784 9.75453595 3.81243487 8.36595047 2 5 C1.67 7.64 1.34 10.28 1 13 C0.67 13 0.34 13 0 13 C0 8.71 0 4.42 0 0 Z " fill="#2E2E2E" transform="translate(319,240)"/>
<path d="M0 0 C0.66 0 1.32 0 2 0 C2 1.98 2 3.96 2 6 C4.64 6 7.28 6 10 6 C10 4.02 10 2.04 10 0 C10.66 0 11.32 0 12 0 C12 4.62 12 9.24 12 14 C11.34 14 10.68 14 10 14 C10 12.02 10 10.04 10 8 C7.36 8 4.72 8 2 8 C2 9.98 2 11.96 2 14 C1.34 14 0.68 14 0 14 C0 9.38 0 4.76 0 0 Z " fill="#525252" transform="translate(244,239)"/>
<path d="M0 0 C2.97 0 5.94 0 9 0 C9 0.66 9 1.32 9 2 C6.69 2 4.38 2 2 2 C2 3.32 2 4.64 2 6 C4.31 6 6.62 6 9 6 C9 6.66 9 7.32 9 8 C6.69 8 4.38 8 2 8 C2 9.32 2 10.64 2 12 C4.31 12 6.62 12 9 12 C9 12.66 9 13.32 9 14 C6.03 14 3.06 14 0 14 C0 9.38 0 4.76 0 0 Z " fill="#595959" transform="translate(146,239)"/>
<path d="M0 0 C1.87751953 0.00676758 1.87751953 0.00676758 3.79296875 0.01367188 C6.86202941 0.02538585 9.93098907 0.04178927 13 0.0625 C11.02 1.0525 11.02 1.0525 9 2.0625 C9.33 2.7225 9.66 3.3825 10 4.0625 C8.93676514 3.81584595 8.93676514 3.81584595 7.85205078 3.56420898 C4.93977935 3.05190649 2.32058628 2.97989463 -0.6328125 3.03515625 C-2.21255859 3.05352539 -2.21255859 3.05352539 -3.82421875 3.07226562 C-6.03261572 3.10754771 -8.240955 3.1466372 -10.44921875 3.18945312 C-11.49980469 3.20041016 -12.55039063 3.21136719 -13.6328125 3.22265625 C-14.59074707 3.23949463 -15.54868164 3.25633301 -16.53564453 3.27368164 C-19 3.0625 -19 3.0625 -22 1.0625 C-14.65939989 -0.10282027 -7.42007939 -0.0509298 0 0 Z " fill="#3D3D3D" transform="translate(179,179.9375)"/>
<path d="M0 0 C0.66 0 1.32 0 2 0 C2 2.31 2 4.62 2 7 C2.45375 6.505 2.9075 6.01 3.375 5.5 C5 4 5 4 7 4 C7.66 2.68 8.32 1.36 9 0 C9.66 0 10.32 0 11 0 C9.66666667 2.66666667 8.33333333 5.33333333 7 8 C7.66 8.61875 8.32 9.2375 9 9.875 C11 12 11 12 11 14 C8.11562221 12.70700306 6.12780579 11.34058637 4 9 C3.34 10.65 2.68 12.3 2 14 C1.34 14 0.68 14 0 14 C0 9.38 0 4.76 0 0 Z " fill="#484848" transform="translate(277,239)"/>
<path d="M0 0 C4.02222388 2.01111194 5.48314253 3.40448933 8 7 C8 7.66 8 8.32 8 9 C8.66 9 9.32 9 10 9 C10 6.03 10 3.06 10 0 C10.33 0 10.66 0 11 0 C11 4.29 11 8.58 11 13 C5.375 8.5 5.375 8.5 3 5 C2.67 7.64 2.34 10.28 2 13 C1.34 13 0.68 13 0 13 C0 8.71 0 4.42 0 0 Z " fill="#363636" transform="translate(205,240)"/>
<path d="M0 0 C0.66 0 1.32 0 2 0 C2.33 3.63 2.66 7.26 3 11 C6.63619656 12.08084521 6.63619656 12.08084521 9 12 C9.33 8.37 9.66 4.74 10 1 C10.33 1 10.66 1 11 1 C11.05391993 2.79133978 11.09275571 4.58313899 11.125 6.375 C11.14820313 7.37273437 11.17140625 8.37046875 11.1953125 9.3984375 C11 12 11 12 9 14 C5.5 14.3125 5.5 14.3125 2 14 C-0.28062828 10.57905758 -0.21925007 9.31812778 -0.125 5.3125 C-0.10695313 4.31863281 -0.08890625 3.32476562 -0.0703125 2.30078125 C-0.04710937 1.54152344 -0.02390625 0.78226563 0 0 Z " fill="#3E3E3E" transform="translate(297,239)"/>
<path d="M0 0 C0.66 0.33 1.32 0.66 2 1 C1.67 1.598125 1.34 2.19625 1 2.8125 C-0.20787988 5.05386471 -0.20787988 5.05386471 0 8 C-2.64458379 9.32229189 -4.67761301 9.09677194 -7.625 9.0625 C-8.62789063 9.05347656 -9.63078125 9.04445312 -10.6640625 9.03515625 C-11.43492187 9.02355469 -12.20578125 9.01195312 -13 9 C-10.15118272 6.82418313 -7.23915912 4.79062001 -4.25 2.8125 C-3.45078125 2.28269531 -2.6515625 1.75289062 -1.828125 1.20703125 C-1.22484375 0.80871094 -0.6215625 0.41039062 0 0 Z " fill="#242424" transform="translate(333,221)"/>
<path d="M0 0 C0.66 0 1.32 0 2 0 C3.65 3.3 5.3 6.6 7 10 C8.32 7.03 9.64 4.06 11 1 C11.66 1 12.32 1 13 1 C11.58192622 5.47238653 9.88695626 9.71146306 8 14 C5 13 5 13 3.61328125 10.56640625 C2.96939453 9.07947266 2.96939453 9.07947266 2.3125 7.5625 C1.87550781 6.57378906 1.43851563 5.58507812 0.98828125 4.56640625 C0 2 0 2 0 0 Z " fill="#464646" transform="translate(163,239)"/>
<path d="M0 0 C3.63 0 7.26 0 11 0 C11 0.66 11 1.32 11 2 C9.35 2 7.7 2 6 2 C6 5.96 6 9.92 6 14 C5.34 14 4.68 14 4 14 C4 10.04 4 6.08 4 2 C2.68 2 1.36 2 0 2 C0 1.34 0 0.68 0 0 Z " fill="#595959" transform="translate(225,239)"/>
<path d="M0 0 C1.98 0 3.96 0 6 0 C6.38218767 1.65614657 6.71395102 3.32457024 7 5 C6 6 6 6 2.9375 6.0625 C1.4834375 6.0315625 1.4834375 6.0315625 0 6 C0 4.02 0 2.04 0 0 Z " fill="#FCFCFC" transform="translate(365,241)"/>
<path d="M0 0 C1.98 0 3.96 0 6 0 C6.38218767 1.65614657 6.71395102 3.32457024 7 5 C6 6 6 6 2.9375 6.0625 C1.4834375 6.0315625 1.4834375 6.0315625 0 6 C0 4.02 0 2.04 0 0 Z " fill="#F6F6F6" transform="translate(128,241)"/>
<path d="M0 0 C0.66 0 1.32 0 2 0 C2 4.29 2 8.58 2 13 C1.34 13 0.68 13 0 13 C-0.12375 11.88625 -0.2475 10.7725 -0.375 9.625 C-0.6465813 5.96896323 -0.6465813 5.96896323 -3 4 C-1.625 2 -1.625 2 0 0 Z " fill="#535353" transform="translate(331,240)"/>
<path d="M0 0 C0.66 0 1.32 0 2 0 C0.66666667 2.66666667 -0.66666667 5.33333333 -2 8 C-1.34 8.61875 -0.68 9.2375 0 9.875 C2 12 2 12 2 14 C-1.16115776 12.63016497 -1.9927092 12.0109362 -4 9 C-4.125 6.3125 -4.125 6.3125 -4 4 C-3.34 4 -2.68 4 -2 4 C-1.34 2.68 -0.68 1.36 0 0 Z " fill="#595959" transform="translate(286,239)"/>
<path d="M0 0 C0.99 0.33 1.98 0.66 3 1 C2.67 2.32 2.34 3.64 2 5 C-0.97 5 -3.94 5 -7 5 C-7 4.34 -7 3.68 -7 3 C-3.535 2.505 -3.535 2.505 0 2 C0 1.34 0 0.68 0 0 Z " fill="#242424" transform="translate(280,300)"/>
<path d="M0 0 C3 3.75 3 3.75 3 6 C1.02 6 -0.96 6 -3 6 C-2.01 4.02 -1.02 2.04 0 0 Z " fill="#EDEDED" transform="translate(348,242)"/>
<path d="M0 0 C2.2477975 2.05233685 3.0022242 3.00667261 4 6 C2.02 6 0.04 6 -2 6 C-1.34 4.02 -0.68 2.04 0 0 Z " fill="#EBEBEB" transform="translate(189,242)"/>
</svg>
