<?xml version="1.0" encoding="UTF-8"?>
<svg version="1.1" xmlns="http://www.w3.org/2000/svg" width="500" height="500">
<path d="M0 0 C165 0 330 0 500 0 C500 165 500 330 500 500 C335 500 170 500 0 500 C0 335 0 170 0 0 Z " fill="#FEFEFE" transform="translate(0,0)"/>
<path d="M0 0 C0.79075928 0.00523682 1.58151855 0.01047363 2.39624023 0.01586914 C3.67724609 0.02070313 3.67724609 0.02070313 4.98413086 0.02563477 C5.88196289 0.03401367 6.77979492 0.04239258 7.70483398 0.05102539 C8.6065332 0.05553711 9.50823242 0.06004883 10.43725586 0.06469727 C12.67234712 0.07652315 14.90730835 0.09300319 17.14233398 0.11352539 C16.83553711 0.7077832 16.52874023 1.30204102 16.21264648 1.91430664 C12.66708999 9.19951944 11.84739198 15.95680764 14.23999023 23.63696289 C17.95877109 33.78193242 22.85004251 43.94181385 31.14233398 51.11352539 C31.82295898 51.73227539 32.50358398 52.35102539 33.20483398 52.98852539 C35.06163545 54.31306267 35.06163545 54.31306267 37.15795898 53.94946289 C39.30236302 53.29120264 39.30236302 53.29120264 40.15405273 51.22290039 C40.48856445 50.05500977 40.48856445 50.05500977 40.82983398 48.86352539 C41.06057617 48.09524414 41.29131836 47.32696289 41.52905273 46.53540039 C43.371449 39.2596954 43.3627688 32.28471182 43.39233398 24.80102539 C43.41295898 23.50745117 43.43358398 22.21387695 43.45483398 20.88110352 C43.48769841 12.84986018 42.73105562 7.29096867 39.14233398 0.11352539 C45.43781145 -0.22848244 50.64818826 -0.37314401 56.14233398 3.11352539 C61.07553686 9.19861817 64.3249877 16.29520464 67.57983398 23.36352539 C71.51881932 31.76844387 75.59198748 40.02229492 80.14233398 48.11352539 C82.61389804 45.64196133 81.38375224 39.11333218 81.39233398 35.80102539 C81.62899592 21.26598437 81.62899592 21.26598437 76.07983398 8.17602539 C72.00115457 5.31227176 67.66901478 3.17909818 63.14233398 1.11352539 C63.14233398 0.78352539 63.14233398 0.45352539 63.14233398 0.11352539 C71.39233398 0.11352539 79.64233398 0.11352539 88.14233398 0.11352539 C87.48233398 2.09352539 86.82233398 4.07352539 86.14233398 6.11352539 C83.12825594 22.1492086 83.50850329 38.84876107 83.14233398 55.11352539 C80.16624158 53.80310588 78.37717364 52.52710103 76.36499023 49.98071289 C75.85766357 49.34681641 75.35033691 48.71291992 74.82763672 48.05981445 C74.29211182 47.37628906 73.75658691 46.69276367 73.20483398 45.98852539 C72.05131466 44.54311192 70.89766487 43.09780256 69.74389648 41.65258789 C69.15253906 40.90654297 68.56118164 40.16049805 67.9519043 39.3918457 C65.01740729 35.69719837 62.0497981 32.02967464 59.07983398 28.36352539 C58.54430908 27.69691895 58.00878418 27.0303125 57.45703125 26.34350586 C52.71551478 20.03039716 52.71551478 20.03039716 46.14233398 16.11352539 C46.51057658 32.97122163 46.51057658 32.97122163 55.14233398 47.11352539 C55.80233398 47.44352539 56.46233398 47.77352539 57.14233398 48.11352539 C57.14233398 48.77352539 57.14233398 49.43352539 57.14233398 50.11352539 C58.19420898 50.36102539 59.24608398 50.60852539 60.32983398 50.86352539 C64.3865264 51.81804125 65.43387231 53.14675605 69.14233398 56.11352539 C50.33233398 56.11352539 31.52233398 56.11352539 12.14233398 56.11352539 C13.13233398 54.13352539 14.12233398 52.15352539 15.14233398 50.11352539 C15.34976971 47.37537386 15.43155646 44.95172485 15.32983398 42.23852539 C15.26795898 39.88727539 15.20608398 37.53602539 15.14233398 35.11352539 C7.55233398 35.11352539 -0.03766602 35.11352539 -7.85766602 35.11352539 C-6.60010948 44.54519942 -5.60027972 49.37091168 1.14233398 56.11352539 C-7.76766602 56.11352539 -16.67766602 56.11352539 -25.85766602 56.11352539 C-22.85766602 53.11352539 -22.85766602 53.11352539 -20.48266602 51.17602539 C-9.76194602 40.13623635 -7.26201314 17.5740055 -3.49291992 3.19775391 C-2.56607008 0.15681727 -2.56607008 0.15681727 0 0 Z " fill="#2C2C2C" transform="translate(238.857666015625,208.886474609375)"/>
<path d="M0 0 C5.28355502 -0.09930776 10.56655984 -0.17167464 15.85083008 -0.21972656 C17.64617382 -0.23977001 19.44145287 -0.26701251 21.23657227 -0.30175781 C23.8258465 -0.35059849 26.4142534 -0.3730412 29.00390625 -0.390625 C29.79898087 -0.41127014 30.59405548 -0.43191528 31.41322327 -0.45318604 C37.05981525 -0.45542997 40.39250048 0.67813119 45 4 C46.45484765 8.36454295 46.61853817 12.44272451 46 17 C41.15239481 24.93244486 33.43530647 27.40452109 25 30 C28.63 30.66 32.26 31.32 36 32 C36 32.66 36 33.32 36 34 C36.66 34 37.32 34 38 34 C41.86565393 39.2207337 44.62259636 44.66394325 46 51 C47.65 51 49.3 51 51 51 C50 54 50 54 48.30859375 55.16015625 C43.66688444 56.84876454 38.84777658 56.60431187 34 56 C30.30918446 53.89096255 29.35511933 52.15178085 28.1171875 48.13671875 C27.59194908 46.04851356 27.10931453 43.94899647 26.67578125 41.83984375 C26.06443351 39.27076973 25.2894056 37.28800908 24 35 C21.69 35 19.38 35 17 35 C17.8125 33.0625 17.8125 33.0625 19 31 C19.99 30.67 20.98 30.34 22 30 C22 29.34 22 28.68 22 28 C23.6796875 26.59765625 23.6796875 26.59765625 25.875 25.0625 C28.67496035 23.10052062 30.06062762 21.90905857 32 19 C32.45915507 16.03157342 32.45915507 16.03157342 32.625 12.8125 C32.69976562 11.72582031 32.77453125 10.63914063 32.8515625 9.51953125 C32.90054688 8.68808594 32.94953125 7.85664063 33 7 C32.34 7 31.68 7 31 7 C30.278125 6.154375 29.55625 5.30875 28.8125 4.4375 C26.19075936 1.6872158 26.19075936 1.6872158 22.625 1.6875 C16.85094575 3.77810585 13.67783865 7.7451116 10.89453125 13.14453125 C7.35748369 22.36078195 8.28762649 32.00348193 12 41 C14.72828691 46.79760969 18.13940667 50.28495794 23.42578125 53.87109375 C23.94527344 54.24363281 24.46476562 54.61617188 25 55 C25 55.33 25 55.66 25 56 C17.08 56 9.16 56 1 56 C2.98 53.525 2.98 53.525 5 51 C5.57946646 48.68255143 5.57946646 48.68255143 5.48583984 46.27319336 C5.4919931 45.36552719 5.49814636 44.45786102 5.50448608 43.52268982 C5.49011505 42.55485062 5.47574402 41.58701141 5.4609375 40.58984375 C5.46002106 39.58538712 5.45910461 38.58093048 5.4581604 37.54603577 C5.45212958 35.4270453 5.43639925 33.30806316 5.41162109 31.18920898 C5.37508989 27.94548146 5.37060206 24.70289626 5.37109375 21.45898438 C5.36126303 19.39842763 5.34960623 17.33787861 5.3359375 15.27734375 C5.33371185 14.30748032 5.33148621 13.33761688 5.32919312 12.33836365 C5.31005356 10.98159264 5.31005356 10.98159264 5.29052734 9.59741211 C5.28290375 8.80419052 5.27528015 8.01096893 5.26742554 7.19371033 C4.9629115 4.69576045 4.38363657 3.10047925 3 1 C2.01 0.67 1.02 0.34 0 0 Z " fill="#2A2A2A" transform="translate(50,209)"/>
<path d="M0 0 C9.24 0 18.48 0 28 0 C28 0.66 28 1.32 28 2 C26.96875 2.350625 25.9375 2.70125 24.875 3.0625 C20.3740222 5.0162713 17.60922663 7.88192347 15 12 C11.22271089 21.7866127 11.83677314 33.07727972 15.87109375 42.6640625 C18.95055266 49.03609166 22.2472452 52.1279535 28 56 C28 56.33 28 56.66 28 57 C18.1 57 8.2 57 -2 57 C-0.68 56.34 0.64 55.68 2 55 C8.5 49.5 8.5 49.5 9 36 C-0.57 36 -10.14 36 -20 36 C-14.643245 48.09657493 -14.643245 48.09657493 -5 56 C-5 56.33 -5 56.66 -5 57 C-15.89 57 -26.78 57 -38 57 C-38 56.34 -38 55.68 -38 55 C-36.390625 53.9921875 -36.390625 53.9921875 -34.25 52.875 C-29.67109684 50.12765811 -27.61507461 47.04596758 -26 42 C-24.69675014 36.26746178 -24.74346712 30.47542911 -24.6875 24.625 C-24.65849609 23.62210938 -24.62949219 22.61921875 -24.59960938 21.5859375 C-24.54690108 15.39068618 -25.00299667 9.99248639 -29 5 C-31.33389423 3.5175129 -33.32291865 2.82371734 -36 2 C-36 1.67 -36 1.34 -36 1 C-26.1 1 -16.2 1 -6 1 C-10 4 -10 4 -12.1875 4.5 C-12.785625 4.665 -13.38375 4.83 -14 5 C-14.33 5.99 -14.66 6.98 -15 8 C-15.66 8 -16.32 8 -17 8 C-20.30803303 16.65497951 -20.61110526 24.82208407 -21 34 C-11.43 33.67 -1.86 33.34 8 33 C8.0825 29.349375 8.165 25.69875 8.25 21.9375 C8.30462402 20.23194946 8.30462402 20.23194946 8.36035156 18.49194336 C8.43000786 12.10210111 7.89191567 8.15106485 4 3 C1.88658874 1.96474868 1.88658874 1.96474868 0 2 C0 1.34 0 0.68 0 0 Z " fill="#292929" transform="translate(422,208)"/>
<path d="M0 0 C0.79075928 0.00523682 1.58151855 0.01047363 2.39624023 0.01586914 C3.67724609 0.02070313 3.67724609 0.02070313 4.98413086 0.02563477 C5.88196289 0.03401367 6.77979492 0.04239258 7.70483398 0.05102539 C8.6065332 0.05553711 9.50823242 0.06004883 10.43725586 0.06469727 C12.67234712 0.07652315 14.90730835 0.09300319 17.14233398 0.11352539 C16.83553711 0.7077832 16.52874023 1.30204102 16.21264648 1.91430664 C12.60341601 9.33035319 11.82668089 16.10846157 14.38061523 23.88305664 C17.40675628 31.96035007 17.40675628 31.96035007 22.14233398 39.11352539 C21.64733398 40.10352539 21.64733398 40.10352539 21.14233398 41.11352539 C20.15233398 41.11352539 19.16233398 41.11352539 18.14233398 41.11352539 C17.81233398 43.75352539 17.48233398 46.39352539 17.14233398 49.11352539 C16.81233398 49.11352539 16.48233398 49.11352539 16.14233398 49.11352539 C15.81233398 44.49352539 15.48233398 39.87352539 15.14233398 35.11352539 C7.55233398 35.11352539 -0.03766602 35.11352539 -7.85766602 35.11352539 C-6.60010948 44.54519942 -5.60027972 49.37091168 1.14233398 56.11352539 C-7.76766602 56.11352539 -16.67766602 56.11352539 -25.85766602 56.11352539 C-22.85766602 53.11352539 -22.85766602 53.11352539 -20.48266602 51.17602539 C-9.76194602 40.13623635 -7.26201314 17.5740055 -3.49291992 3.19775391 C-2.56607008 0.15681727 -2.56607008 0.15681727 0 0 Z " fill="#2A2A2A" transform="translate(238.857666015625,208.886474609375)"/>
<path d="M0 0 C13.86 0 27.72 0 42 0 C41.34 1.65 40.68 3.3 40 5 C39.71664284 7.42992135 39.51196541 9.8699502 39.375 12.3125 C39.30023438 13.56675781 39.22546875 14.82101563 39.1484375 16.11328125 C39.09945312 17.06589844 39.05046875 18.01851562 39 19 C36.54176828 15.31265242 35.98757384 12.30300029 35 8 C34.34 8 33.68 8 33 8 C32.278125 7.175 31.55625 6.35 30.8125 5.5 C28.17451431 2.71657392 28.17451431 2.71657392 24.5 2.375 C18.78201781 3.39606825 16.45423474 7.1741065 13.25 11.6875 C10.46761896 16.24920936 10.11850713 20.74259296 10 26 C15.46434131 28.18573652 20.75262618 29.16572394 26.4375 27.125 C28.15893274 26.06925899 28.15893274 26.06925899 29 24 C29.66 24 30.32 24 31 24 C31 22.35 31 20.7 31 19 C31.66 18.67 32.32 18.34 33 18 C33 25.59 33 33.18 33 41 C32.34 40.01 31.68 39.02 31 38 C27.61232054 34.22556406 27.61232054 34.22556406 22.94140625 32.83203125 C22.15636719 32.82558594 21.37132813 32.81914062 20.5625 32.8125 C19.78003906 32.79832031 18.99757813 32.78414062 18.19140625 32.76953125 C15.70794013 32.85913936 15.70794013 32.85913936 13 35 C12.11144382 40.55347614 13.56813776 43.7680613 16.6484375 48.19921875 C17.09445313 48.79347656 17.54046875 49.38773437 18 50 C18.61875 50.825 19.2375 51.65 19.875 52.5 C23.08069354 54.7628425 25.17737239 54.60357278 29 54 C33.56449627 50.7841049 34.90470224 47.16995194 36.32421875 41.98828125 C37 40 37 40 39 38 C39.04898438 38.86882812 39.09796875 39.73765625 39.1484375 40.6328125 C39.22320312 41.78523438 39.29796875 42.93765625 39.375 44.125 C39.47941406 45.83042969 39.47941406 45.83042969 39.5859375 47.5703125 C39.94426908 51.50027466 39.94426908 51.50027466 42 57 C28.47 57 14.94 57 1 57 C2.32 55.68 3.64 54.36 5 53 C5.58456677 50.73504163 5.58456677 50.73504163 5.48583984 48.27905273 C5.4919931 47.34806259 5.49814636 46.41707245 5.50448608 45.45787048 C5.49011505 44.45985916 5.47574402 43.46184784 5.4609375 42.43359375 C5.46002106 41.40315445 5.45910461 40.37271515 5.4581604 39.31105042 C5.4521231 37.13481026 5.43637334 34.95857846 5.41162109 32.7824707 C5.37509817 29.44646696 5.37060187 26.11157348 5.37109375 22.77539062 C5.36126318 20.66144871 5.34960645 18.54751433 5.3359375 16.43359375 C5.33371185 15.4335582 5.33148621 14.43352264 5.32919312 13.40318298 C5.31005356 12.01142601 5.31005356 12.01142601 5.29052734 10.59155273 C5.28290375 9.77532944 5.27528015 8.95910614 5.26742554 8.1181488 C5.1221056 5.69987392 5.1221056 5.69987392 3 3 C2.01 2.67 1.02 2.34 0 2 C0 1.34 0 0.68 0 0 Z " fill="#292929" transform="translate(104,208)"/>
<path d="M0 0 C7.59 0 15.18 0 23 0 C22.34 2.31 21.68 4.62 21 7 C19.75463907 16.36916885 22.57660558 25.06488928 25 34 C25.70392665 36.99362212 26.35562504 39.99291685 27 43 C27.66 43 28.32 43 29 43 C30.38938077 44.96147874 31.7260411 46.96166576 33 49 C35.475 48.505 35.475 48.505 38 48 C38.48377991 46.14703165 38.96178636 44.29255559 39.4375 42.4375 C39.70433594 41.40496094 39.97117188 40.37242187 40.24609375 39.30859375 C41.79935395 32.49195445 42.20865927 25.8982449 42.25 18.9375 C42.270625 18.06544922 42.29125 17.19339844 42.3125 16.29492188 C42.34383413 11.1208733 41.97520651 7.43819222 39 3 C36.44278263 1.57442644 36.44278263 1.57442644 34 1 C34 0.67 34 0.34 34 0 C42.91 0 51.82 0 61 0 C59.35 1.65 57.7 3.3 56 5 C51.90338844 10.30161684 49.7716353 15.91136377 48 22.3125 C47.75145264 23.16755127 47.50290527 24.02260254 47.24682617 24.90356445 C45.95096014 29.41288099 44.75003676 33.94028319 43.61328125 38.4921875 C43.39349609 39.36447998 43.17371094 40.23677246 42.94726562 41.13549805 C42.53055135 42.8108497 42.12646895 44.48940417 41.73632812 46.17114258 C41.25193025 48.13974734 40.63728415 50.07544422 40 52 C39.01 52.33 38.02 52.66 37 53 C37 53.66 37 54.32 37 55 C33.54405601 55.96444949 31.73591013 56.38635282 28.5 54.6875 C22.86127586 48.62587155 19.63584703 41.61477165 16.9921875 33.84765625 C14.84009205 27.67097287 12.15610534 21.68494409 9.5703125 15.6796875 C9.11398438 14.60976562 8.65765625 13.53984375 8.1875 12.4375 C7.76855469 11.46683594 7.34960938 10.49617187 6.91796875 9.49609375 C6 7 6 7 6 4 C5.38125 3.71125 4.7625 3.4225 4.125 3.125 C2 2 2 2 0 0 Z " fill="#282828" transform="translate(150,209)"/>
<path d="M0 0 C16.5 0 33 0 50 0 C49.67 1.32 49.34 2.64 49 4 C48.93101758 6.59373914 48.90565248 9.15810197 48.9375 11.75 C48.94201172 12.44738281 48.94652344 13.14476562 48.95117188 13.86328125 C48.9628998 15.57555803 48.98083347 17.28779033 49 19 C48.34 19 47.68 19 47 19 C46.75765625 18.18015625 46.5153125 17.3603125 46.265625 16.515625 C45.93046875 15.43796875 45.5953125 14.3603125 45.25 13.25 C44.92515625 12.18265625 44.6003125 11.1153125 44.265625 10.015625 C42.92070768 6.81106891 41.70933516 5.14913428 39 3 C35.5 2.16666667 35.5 2.16666667 32 3 C25.73290459 10.25663678 26.22407988 19.45753431 26.72607422 28.57080078 C27.80323865 38.12319476 32.05949509 47.37497258 39 54 C39.66 54.66 40.32 55.32 41 56 C30.11 56 19.22 56 8 56 C9.82294643 54.17705357 11.65412618 52.36222698 13.5 50.5625 C17.77992491 46.17557697 19.73691632 42.52766257 21.1875 36.5625 C21.35967041 35.85528809 21.53184082 35.14807617 21.70922852 34.41943359 C23.97485993 24.44975942 24.20733286 14.51474817 20 5 C18.06641756 2.65952546 18.06641756 2.65952546 14.625 2.5625 C10.99584207 2.67593607 10.99584207 2.67593607 8.75 4.8125 C6.27618565 9.31837613 5.15275761 14.01345003 4 19 C3.34 19 2.68 19 2 19 C1.93941406 17.87980469 1.87882812 16.75960937 1.81640625 15.60546875 C1.73198576 14.13280016 1.64733851 12.66014456 1.5625 11.1875 C1.52318359 10.44951172 1.48386719 9.71152344 1.44335938 8.95117188 C1.25618965 5.76928658 1.01279207 3.03837622 0 0 Z " fill="#272727" transform="translate(331,209)"/>
<path d="M0 0 C9.57 0 19.14 0 29 0 C29 13.78571429 29 13.78571429 24.25 18.875 C20.85818613 20.57090693 18.84872323 21.12618765 15 21 C7.41634718 17.22138553 3.12081411 10.68576965 0 3 C0 2.01 0 1.02 0 0 Z " fill="#F8F8F8" transform="translate(402,244)"/>
<path d="M0 0 C0.99 0.33 1.98 0.66 3 1 C2 4 2 4 0 5 C1.32 5 2.64 5 4 5 C4.66 5.33 5.32 5.66 6 6 C4.07942708 6.71614583 2.15885417 7.43229167 0.23828125 8.1484375 C-2.18547317 9.07056396 -4.5922355 10.0368942 -7 11 C-3.37 11.66 0.26 12.32 4 13 C4 13.66 4 14.32 4 15 C4.66 15 5.32 15 6 15 C9.86565393 20.2207337 12.62259636 25.66394325 14 32 C15.65 32 17.3 32 19 32 C18 35 18 35 16.30859375 36.16015625 C11.66688444 37.84876454 6.84777658 37.60431187 2 37 C-1.69081554 34.89096255 -2.64488067 33.15178085 -3.8828125 29.13671875 C-4.40805092 27.04851356 -4.89068547 24.94899647 -5.32421875 22.83984375 C-5.93556649 20.27076973 -6.7105944 18.28800908 -8 16 C-10.31 16 -12.62 16 -15 16 C-14.1875 14.0625 -14.1875 14.0625 -13 12 C-12.01 11.67 -11.02 11.34 -10 11 C-10 10.34 -10 9.68 -10 9 C-8.3203125 7.59765625 -8.3203125 7.59765625 -6.125 6.0625 C-3.32503965 4.10052062 -1.93937238 2.90905857 0 0 Z " fill="#282828" transform="translate(82,228)"/>
<path d="M0 0 C5.05786135 1.03061916 6.391107 3.77522302 9.18359375 7.9609375 C17 21.03870968 17 21.03870968 17 28 C10.07 28 3.14 28 -4 28 C-4 20.78885179 -3.67449522 15.17480828 -2 8.375 C-1.80921875 7.56160156 -1.6184375 6.74820313 -1.421875 5.91015625 C-0.95778107 3.93775707 -0.48033299 1.96850754 0 0 Z " fill="#F9F9F9" transform="translate(236,214)"/>
<path d="M0 0 C8.91 0 17.82 0 27 0 C25.35 1.65 23.7 3.3 22 5 C17.32880048 10.65860755 15.6967493 16.97892103 13.9921875 24.0234375 C13 27 13 27 10 29 C9.92652344 27.64068359 9.92652344 27.64068359 9.8515625 26.25390625 C9.67282124 14.22919987 9.67282124 14.22919987 5.0625 3.5625 C3.4177428 2.31647181 1.71689148 1.14459432 0 0 Z " fill="#252525" transform="translate(184,209)"/>
<path d="M0 0 C3.10159502 0.3085904 4.56276294 0.47037379 6.58984375 2.92578125 C7.03457031 3.71339844 7.47929687 4.50101563 7.9375 5.3125 C10.52062563 9.53272343 12.7424897 11.56713697 17 14 C17 14.33 17 14.66 17 15 C6.11 15 -4.78 15 -16 15 C-16 14.34 -16 13.68 -16 13 C-14.35546875 11.81640625 -14.35546875 11.81640625 -12.1875 10.5625 C-10.01007284 9.29729187 -8.19665595 8.19958383 -6.42578125 6.40234375 C-5 5 -5 5 -2 4 C-0.79117904 1.99983534 -0.79117904 1.99983534 0 0 Z " fill="#262626" transform="translate(400,250)"/>
<path d="M0 0 C1.97119141 -0.34057617 1.97119141 -0.34057617 4.3515625 -0.29296875 C5.20234375 -0.28330078 6.053125 -0.27363281 6.9296875 -0.26367188 C7.81914062 -0.23853516 8.70859375 -0.21339844 9.625 -0.1875 C10.97078125 -0.16719727 10.97078125 -0.16719727 12.34375 -0.14648438 C14.56309789 -0.11106925 16.78125188 -0.06168461 19 0 C18.69320312 0.60070312 18.38640625 1.20140625 18.0703125 1.8203125 C14.35347543 9.38963762 14.79291145 16.70495302 15 25 C14.34 25 13.68 25 13 25 C12.54109375 24.04738281 12.0821875 23.09476563 11.609375 22.11328125 C10.98991026 20.84619428 10.37010019 19.5792761 9.75 18.3125 C9.44964844 17.68666016 9.14929688 17.06082031 8.83984375 16.41601562 C6.94123024 12.55819455 4.95101681 9.18119612 2 6 C1.01 5.67 0.02 5.34 -1 5 C-1.33 7.31 -1.66 9.62 -2 12 C-2.33 12 -2.66 12 -3 12 C-2.88541307 10.56163249 -2.75790884 9.12429034 -2.625 7.6875 C-2.55539063 6.88699219 -2.48578125 6.08648437 -2.4140625 5.26171875 C-2 3 -2 3 0 0 Z " fill="#242424" transform="translate(237,209)"/>
<path d="M0 0 C9.9 0 19.8 0 30 0 C26 3 26 3 23.8125 3.5 C23.214375 3.665 22.61625 3.83 22 4 C21.67 4.99 21.34 5.98 21 7 C20.34 7 19.68 7 19 7 C18.79503906 7.68707031 18.59007812 8.37414062 18.37890625 9.08203125 C18.10949219 9.98308594 17.84007812 10.88414062 17.5625 11.8125 C17.29566406 12.70582031 17.02882813 13.59914062 16.75390625 14.51953125 C16.19612127 16.35473055 15.60655425 18.18033726 15 20 C14.77820215 21.89212737 14.59385985 23.78884472 14.4375 25.6875 C14.35371094 26.68136719 14.26992188 27.67523438 14.18359375 28.69921875 C14.12300781 29.45847656 14.06242187 30.21773437 14 31 C13.67 31 13.34 31 13 31 C12.97421875 29.96101563 12.9484375 28.92203125 12.921875 27.8515625 C12.53429165 15.91257562 12.53429165 15.91257562 8 5 C5.59256899 2.93545998 5.59256899 2.93545998 3 2 C2.01 1.34 1.02 0.68 0 0 Z " fill="#282828" transform="translate(386,209)"/>
<path d="M0 0 C2.64498328 2.34922911 3.99027187 4.69343972 5.48046875 7.88671875 C5.92197266 8.82451172 6.36347656 9.76230469 6.81835938 10.72851562 C7.49608398 12.19321289 7.49608398 12.19321289 8.1875 13.6875 C8.65091797 14.67556641 9.11433594 15.66363281 9.59179688 16.68164062 C10.73368224 19.11844753 11.86948697 21.55790158 13 24 C13.99 24 14.98 24 16 24 C16.33 26.64 16.66 29.28 17 32 C13.8147087 30.62358089 11.98674813 29.12593907 9.80078125 26.4453125 C9.23166016 25.74792969 8.66253906 25.05054688 8.07617188 24.33203125 C7.49416016 23.60371094 6.91214844 22.87539062 6.3125 22.125 C5.71888672 21.40441406 5.12527344 20.68382812 4.51367188 19.94140625 C-0.47656185 13.7619378 -0.47656185 13.7619378 -1 10 C-0.67 9.34 -0.34 8.68 0 8 C-0.350625 7.38125 -0.70125 6.7625 -1.0625 6.125 C-1.371875 5.42375 -1.68125 4.7225 -2 4 C-1.125 1.75 -1.125 1.75 0 0 Z " fill="#2E2E2E" transform="translate(305,232)"/>
<path d="M0 0 C0.33 0 0.66 0 1 0 C1.33 1.65 1.66 3.3 2 5 C2.33 5 2.66 5 3 5 C3 9.29 3 13.58 3 18 C12.24 18 21.48 18 31 18 C31 18.66 31 19.32 31 20 C22.09 20 13.18 20 4 20 C4.33 21.98 4.66 23.96 5 26 C4.34 26.66 3.68 27.32 3 28 C2.360625 28.70125 1.72125 29.4025 1.0625 30.125 C-1 32 -1 32 -4 32 C-3.79503906 31.36578125 -3.59007812 30.7315625 -3.37890625 30.078125 C-0.51241114 20.14825676 -0.29449665 10.27691757 0 0 Z " fill="#5A5A5A" transform="translate(398,224)"/>
<path d="M0 0 C0.33 0 0.66 0 1 0 C1.06058594 0.90363281 1.12117188 1.80726563 1.18359375 2.73828125 C1.30927734 4.50751953 1.30927734 4.50751953 1.4375 6.3125 C1.51871094 7.48425781 1.59992188 8.65601563 1.68359375 9.86328125 C1.8867371 13.02590958 1.8867371 13.02590958 3 16 C2.546875 18.09375 2.546875 18.09375 1.75 20.5 C0.21487516 25.23795349 -1.01420173 30.00074903 -2.15625 34.84765625 C-2.4346875 35.55792969 -2.713125 36.26820313 -3 37 C-4.485 37.495 -4.485 37.495 -6 38 C-6 38.66 -6 39.32 -6 40 C-8.6875 40.75 -8.6875 40.75 -12 41 C-15.31621484 39.08396476 -16.71870282 37.95208276 -17.8125 34.25 C-17.874375 33.5075 -17.93625 32.765 -18 32 C-17.34 31.67 -16.68 31.34 -16 31 C-15.34 31.99 -14.68 32.98 -14 34 C-10.72724974 34 -8.153368 33.70074844 -5 33 C-1.64599789 22.2001132 -0.87818736 11.21935595 0 0 Z " fill="#282828" transform="translate(193,224)"/>
<path d="M0 0 C13.86 0 27.72 0 42 0 C41.34 1.65 40.68 3.3 40 5 C39.71664284 7.42992135 39.51196541 9.8699502 39.375 12.3125 C39.30023438 13.56675781 39.22546875 14.82101563 39.1484375 16.11328125 C39.09945312 17.06589844 39.05046875 18.01851562 39 19 C36.54176828 15.31265242 35.98757384 12.30300029 35 8 C34.34 8 33.68 8 33 8 C32.236875 7.195625 31.47375 6.39125 30.6875 5.5625 C26.70057111 1.76100966 22.82007455 1.89240515 17.48046875 1.68359375 C16.45888672 1.64169922 15.43730469 1.59980469 14.38476562 1.55664062 C13.32966797 1.51732422 12.27457031 1.47800781 11.1875 1.4375 C9.57584961 1.37272461 9.57584961 1.37272461 7.93164062 1.30664062 C5.28787918 1.20089017 2.6440289 1.09879767 0 1 C0 0.67 0 0.34 0 0 Z " fill="#555555" transform="translate(104,208)"/>
<path d="M0 0 C0.33 0 0.66 0 1 0 C1.04898438 0.86882812 1.09796875 1.73765625 1.1484375 2.6328125 C1.22320312 3.78523437 1.29796875 4.93765625 1.375 6.125 C1.44460937 7.26195312 1.51421875 8.39890625 1.5859375 9.5703125 C1.94426908 13.50027466 1.94426908 13.50027466 4 19 C-5.24 19 -14.48 19 -24 19 C-22.68 18.34 -21.36 17.68 -20 17 C-19.67 16.34 -19.34 15.68 -19 15 C-18.01 15.33 -17.02 15.66 -16 16 C-11.79388774 16.46734581 -9.75585485 16.5325341 -6.25 14.0625 C-3.82019438 10.75526457 -2.70680384 7.89272259 -1.578125 3.98828125 C-1 2 -1 2 0 0 Z " fill="#282828" transform="translate(142,246)"/>
<path d="M0 0 C1.74949772 2.62424658 2.65389981 4.55727216 3.625 7.5 C3.88539063 8.2734375 4.14578125 9.046875 4.4140625 9.84375 C5 12 5 12 5 15 C5.66 15 6.32 15 7 15 C7.66 16.65 8.32 18.3 9 20 C8.34 20.66 7.68 21.32 7 22 C6.01 21.01 5.02 20.02 4 19 C3.34 19.66 2.68 20.32 2 21 C-0.94033413 15.42234327 -3.53012914 10.14673271 -5 4 C-4.0409375 3.8453125 -4.0409375 3.8453125 -3.0625 3.6875 C-2.381875 3.460625 -1.70125 3.23375 -1 3 C-0.67 2.01 -0.34 1.02 0 0 Z " fill="#333333" transform="translate(172,237)"/>
<path d="M0 0 C2.75924692 2.75924692 3.56721389 5.87058017 4.90234375 9.4921875 C5.99681482 11.99272283 7.27985329 13.89269776 9 16 C8.67 16.66 8.34 17.32 8 18 C7.01 18 6.02 18 5 18 C4.67 20.64 4.34 23.28 4 26 C3.67 26 3.34 26 3 26 C2.67 21.38 2.34 16.76 2 12 C-5.26 12 -12.52 12 -20 12 C-20 11.34 -20 10.68 -20 10 C-13.07 10 -6.14 10 1 10 C0.34 8.35 -0.32 6.7 -1 5 C-0.625 2.1875 -0.625 2.1875 0 0 Z " fill="#4F4F4F" transform="translate(252,232)"/>
<path d="M0 0 C5.13114754 6.53055142 5.13114754 6.53055142 4.828125 9.92578125 C4.71984375 10.63089844 4.6115625 11.33601562 4.5 12.0625 C3.55735474 16.0457203 3.55735474 16.0457203 6 19 C5.67 19.99 5.34 20.98 5 22 C0.6875406 20.40279281 -1.42143673 17.68366181 -4 14 C-3.92426581 11.42503739 -3.14856295 10.24239219 -1.8125 8.0625 C-0.71168887 5.90456627 -0.71168887 5.90456627 -1.875 3.25 C-2.24625 2.5075 -2.6175 1.765 -3 1 C-2.01 0.67 -1.02 0.34 0 0 Z " fill="#2F2F2F" transform="translate(300,221)"/>
<path d="M0 0 C5.28 0 10.56 0 16 0 C16.33 0.66 16.66 1.32 17 2 C15.9275 2.20625 14.855 2.4125 13.75 2.625 C9.11838611 4.32325843 8.15374011 5.61275162 6 10 C5.15071105 12.97493787 4.51503807 15.95043248 4 19 C3.34 19 2.68 19 2 19 C1.93941406 17.87980469 1.87882812 16.75960937 1.81640625 15.60546875 C1.73198576 14.13280016 1.64733851 12.66014456 1.5625 11.1875 C1.52318359 10.44951172 1.48386719 9.71152344 1.44335938 8.95117188 C1.25618965 5.76928658 1.01279207 3.03837622 0 0 Z " fill="#2A2A2A" transform="translate(331,209)"/>
<path d="M0 0 C5.28 0 10.56 0 16 0 C15.67 1.32 15.34 2.64 15 4 C14.93101758 6.59373914 14.90565248 9.15810197 14.9375 11.75 C14.94201172 12.44738281 14.94652344 13.14476562 14.95117188 13.86328125 C14.9628998 15.57555803 14.98083347 17.28779033 15 19 C14.34 19 13.68 19 13 19 C12.75765625 18.18015625 12.5153125 17.3603125 12.265625 16.515625 C11.93046875 15.43796875 11.5953125 14.3603125 11.25 13.25 C10.76273437 11.64898437 10.76273437 11.64898437 10.265625 10.015625 C8.92261506 6.81561366 7.69100021 5.16095471 5 3 C1.85518209 2.19684346 1.85518209 2.19684346 -1 2 C-0.67 1.34 -0.34 0.68 0 0 Z " fill="#2C2C2C" transform="translate(365,209)"/>
<path d="M0 0 C5.94 0 11.88 0 18 0 C12.25 8.75 12.25 8.75 10 11 C9.67 10.34 9.34 9.68 9 9 C8.4225 8.773125 7.845 8.54625 7.25 8.3125 C5 7 5 7 0 0 Z " fill="#262626" transform="translate(347,209)"/>
<path d="M0 0 C1.32 0.33 2.64 0.66 4 1 C4.79112855 3.77379516 5.10317279 6.16741179 5.02734375 9.046875 C5.01509766 9.81 5.00285156 10.573125 4.99023438 11.359375 C4.9554206 12.93759944 4.9164422 14.5157382 4.87304688 16.09375 C4.79708718 21.41986498 5.50978362 25.88066845 7 31 C6.38125 30.2265625 6.38125 30.2265625 5.75 29.4375 C5.1725 28.963125 4.595 28.48875 4 28 C1.90850447 28.36649377 1.90850447 28.36649377 0 29 C0.165 27.783125 0.33 26.56625 0.5 25.3125 C1.43000326 16.9026134 1.55084033 8.33576676 0 0 Z " fill="#3F3F3F" transform="translate(353,217)"/>
<path d="M0 0 C0.99 0.33 1.98 0.66 3 1 C2 4 2 4 0 5 C1.32 5 2.64 5 4 5 C4.66 5.33 5.32 5.66 6 6 C4.1746875 6.680625 4.1746875 6.680625 2.3125 7.375 C-0.8080927 8.54452941 -3.91230616 9.74562438 -7 11 C-7 11.99 -7 12.98 -7 14 C-12.75 16 -12.75 16 -15 16 C-14.1875 14.0625 -14.1875 14.0625 -13 12 C-12.01 11.67 -11.02 11.34 -10 11 C-10 10.34 -10 9.68 -10 9 C-8.3203125 7.59765625 -8.3203125 7.59765625 -6.125 6.0625 C-3.32503965 4.10052062 -1.93937238 2.90905857 0 0 Z " fill="#494949" transform="translate(82,228)"/>
<path d="M0 0 C0.33 0 0.66 0 1 0 C1.06058594 0.90363281 1.12117187 1.80726563 1.18359375 2.73828125 C1.26738281 3.91777344 1.35117188 5.09726563 1.4375 6.3125 C1.51871094 7.48425781 1.59992188 8.65601563 1.68359375 9.86328125 C1.8867371 13.02590958 1.8867371 13.02590958 3 16 C2.546875 18.09375 2.546875 18.09375 1.75 20.5 C0.22038544 25.2425036 -1.0534639 30.01197604 -2.25390625 34.84765625 C-3 37 -3 37 -5 38 C-4.51684219 32.49200096 -3.65747228 27.22156558 -2.5 21.8125 C-0.98950417 14.53264691 -0.33231174 7.43690746 0 0 Z " fill="#4D4D4D" transform="translate(193,224)"/>
<path d="M0 0 C0.66 0.33 1.32 0.66 2 1 C2 3.95221123 1.80145598 6.81957322 1.5625 9.76171875 C1.47226562 10.87998047 1.38203125 11.99824219 1.2890625 13.15039062 C1.19367187 14.31763672 1.09828125 15.48488281 1 16.6875 C0.90460937 17.86634766 0.80921875 19.04519531 0.7109375 20.25976562 C0.47502658 23.17326545 0.23800367 26.08667051 0 29 C-0.66 29 -1.32 29 -2 29 C-2.0580772 24.91672643 -2.09362249 20.83355917 -2.125 16.75 C-2.14175781 15.59113281 -2.15851562 14.43226563 -2.17578125 13.23828125 C-2.18222656 12.12324219 -2.18867187 11.00820312 -2.1953125 9.859375 C-2.20578613 8.83295898 -2.21625977 7.80654297 -2.22705078 6.74902344 C-1.99836111 3.98015712 -1.4243299 2.35581208 0 0 Z " fill="#212121" transform="translate(58,216)"/>
<path d="M0 0 C0.33 0 0.66 0 1 0 C1.04898438 0.86882812 1.09796875 1.73765625 1.1484375 2.6328125 C1.22320312 3.78523437 1.29796875 4.93765625 1.375 6.125 C1.44460937 7.26195312 1.51421875 8.39890625 1.5859375 9.5703125 C1.99443876 12.95393616 2.80967569 15.81612441 4 19 C2.02 19 0.04 19 -2 19 C-2.33 17.02 -2.66 15.04 -3 13 C-3.99 14.485 -3.99 14.485 -5 16 C-5.66 15.67 -6.32 15.34 -7 15 C-6.401875 14.38125 -5.80375 13.7625 -5.1875 13.125 C-2.31055842 9.01508346 -1.23497817 4.81828604 0 0 Z " fill="#383838" transform="translate(142,246)"/>
<path d="M0 0 C9.24 0 18.48 0 28 0 C27.67 0.66 27.34 1.32 27 2 C22.38 2 17.76 2 13 2 C12.67 2.66 12.34 3.32 12 4 C12.66 4.66 13.32 5.32 14 6 C12.33388095 6.042721 10.66617115 6.04063832 9 6 C8.67 5.67 8.34 5.34 8 5 C7.67 5.66 7.34 6.32 7 7 C6.5875 6.360625 6.175 5.72125 5.75 5.0625 C3.82189513 2.79009069 2.88575819 2.39803561 0 2 C0 1.34 0 0.68 0 0 Z " fill="#5D5D5D" transform="translate(422,208)"/>
<path d="M0 0 C0.99 0.33 1.98 0.66 3 1 C2.67 6.94 2.34 12.88 2 19 C0.68 18.67 -0.64 18.34 -2 18 C-1.85946128 15.37461716 -1.71281053 12.74982573 -1.5625 10.125 C-1.52318359 9.37863281 -1.48386719 8.63226563 -1.44335938 7.86328125 C-1.11328125 2.2265625 -1.11328125 2.2265625 0 0 Z " fill="#444444" transform="translate(432,223)"/>
<path d="M0 0 C3.68754757 0.49831724 5.60490662 1.10067643 8 4 C6.68 4 5.36 4 4 4 C4 4.66 4 5.32 4 6 C3.01 6.495 3.01 6.495 2 7 C1.01 8.485 1.01 8.485 0 10 C-0.66 9.67 -1.32 9.34 -2 9 C-2 8.34 -2 7.68 -2 7 C-2.66 7 -3.32 7 -4 7 C-4.33 6.01 -4.66 5.02 -5 4 C-4.34 3.34 -3.68 2.68 -3 2 C-2.01 2 -1.02 2 0 2 C0 1.34 0 0.68 0 0 Z " fill="#323232" transform="translate(85,209)"/>
<path d="M0 0 C1 2 1 2 0.56640625 3.671875 C-0.21680718 6.89115225 -0.0931263 9.94235945 -0.0625 13.25 C-0.05347656 14.51328125 -0.04445312 15.7765625 -0.03515625 17.078125 C-0.02355469 18.04234375 -0.01195312 19.0065625 0 20 C-0.66 20 -1.32 20 -2 20 C-3.67585114 16.73853585 -5.13368067 13.57223031 -6 10 C-4.375 6.625 -4.375 6.625 -2 4 C-1.30570621 2.6808418 -0.62469505 1.35350594 0 0 Z " fill="#2D2D2D" transform="translate(252,214)"/>
<path d="M0 0 C1.32 0 2.64 0 4 0 C3.79375 0.928125 3.5875 1.85625 3.375 2.8125 C2.63307034 6.15173402 2.63307034 6.15173402 5 9 C4.67 9.99 4.34 10.98 4 12 C0.64379729 10.61122646 -1.07298728 9.08322035 -3 6 C-3 5.34 -3 4.68 -3 4 C-2.34 4 -1.68 4 -1 4 C-0.67 2.68 -0.34 1.36 0 0 Z " fill="#232323" transform="translate(301,231)"/>
<path d="M0 0 C0.66 0 1.32 0 2 0 C2.33 1.98 2.66 3.96 3 6 C0.03 7.32 -2.94 8.64 -6 10 C-6.66 9.01 -7.32 8.02 -8 7 C-7.01 6.34 -6.02 5.68 -5 5 C-5.33 4.34 -5.66 3.68 -6 3 C-3.92446352 2.4465236 -2.15634036 2 0 2 C0 1.34 0 0.68 0 0 Z " fill="#272727" transform="translate(89,225)"/>
<path d="M0 0 C1.051875 0.4640625 1.051875 0.4640625 2.125 0.9375 C5.08936657 2.03302678 7.87698108 2.56422992 11 3 C11 3.33 11 3.66 11 4 C13.97 4.495 13.97 4.495 17 5 C16.67 5.66 16.34 6.32 16 7 C11.71 7 7.42 7 3 7 C3 6.34 3 5.68 3 5 C1.35 5 -0.3 5 -2 5 C-1.34 3.35 -0.68 1.7 0 0 Z " fill="#3B3B3B" transform="translate(115,234)"/>
<path d="M0 0 C1.32 1.65 2.64 3.3 4 5 C4.66 4.67 5.32 4.34 6 4 C6.33 6.64 6.66 9.28 7 12 C3.54804233 10.5741914 1.8985744 8.90253666 -0.25 5.875 C-1.03117187 4.78832031 -1.03117187 4.78832031 -1.828125 3.6796875 C-2.21484375 3.12539062 -2.6015625 2.57109375 -3 2 C-2.01 1.34 -1.02 0.68 0 0 Z " fill="#393939" transform="translate(315,252)"/>
<path d="M0 0 C0.59375 1.859375 0.59375 1.859375 1 4 C-0.5 6.25 -0.5 6.25 -3 8 C-6.75 8.25 -6.75 8.25 -10 8 C-10 7.34 -10 6.68 -10 6 C-7.8125 4.4921875 -7.8125 4.4921875 -5 2.875 C-4.071875 2.33617187 -3.14375 1.79734375 -2.1875 1.2421875 C-1.465625 0.83226562 -0.74375 0.42234375 0 0 Z " fill="#303030" transform="translate(394,257)"/>
<path d="M0 0 C0.33 0 0.66 0 1 0 C0.3741355 7.00435592 -0.28674095 14.00399099 -1 21 C-1.33 19.68 -1.66 18.36 -2 17 C-2.66 17 -3.32 17 -4 17 C-3.45018084 10.95198929 -2.09570426 5.69398894 0 0 Z " fill="#494949" transform="translate(233,221)"/>
<path d="M0 0 C0.33 0 0.66 0 1 0 C1.4803318 1.58298026 1.95921612 3.16639978 2.4375 4.75 C2.83775391 6.07257813 2.83775391 6.07257813 3.24609375 7.421875 C3.88468494 9.60565835 4.46775833 11.78835498 5 14 C3.35 14.33 1.7 14.66 0 15 C0 11 0 11 1 8 C0.34 8 -0.32 8 -1 8 C-1.33 7.01 -1.66 6.02 -2 5 C-1.34 5 -0.68 5 0 5 C0 3.35 0 1.7 0 0 Z " fill="#343434" transform="translate(58,240)"/>
<path d="M0 0 C3.625 0.1875 3.625 0.1875 6.625 2.1875 C2.875 3.3125 2.875 3.3125 0.625 2.1875 C0.295 3.5075 -0.035 4.8275 -0.375 6.1875 C-1.035 6.1875 -1.695 6.1875 -2.375 6.1875 C-2.705 6.8475 -3.035 7.5075 -3.375 8.1875 C-4.4375 6.375 -4.4375 6.375 -5.375 4.1875 C-4.05424528 0.22523585 -4.05424528 0.22523585 0 0 Z " fill="#383838" transform="translate(79.375,239.8125)"/>
<path d="M0 0 C0.66 0 1.32 0 2 0 C2.66 3.96 3.32 7.92 4 12 C3.34 12 2.68 12 2 12 C1.67 13.32 1.34 14.64 1 16 C-0.14077657 12.57767028 -0.09815117 9.91326783 -0.0625 6.3125 C-0.05347656 5.13300781 -0.04445313 3.95351562 -0.03515625 2.73828125 C-0.02355469 1.83464844 -0.01195312 0.93101562 0 0 Z " fill="#202020" transform="translate(283,240)"/>
<path d="M0 0 C0.33 0 0.66 0 1 0 C2.61050328 9.01531729 2.61050328 9.01531729 0.0625 13.125 C-0.618125 13.74375 -1.29875 14.3625 -2 15 C-2.66 14.67 -3.32 14.34 -4 14 C-3.69255859 13.11248047 -3.69255859 13.11248047 -3.37890625 12.20703125 C-2.0002429 8.16339184 -0.68249153 4.23144751 0 0 Z " fill="#393939" transform="translate(282,248)"/>
<path d="M0 0 C0.33 0 0.66 0 1 0 C1.12036664 5.77759884 0.8320582 11.27959989 0 17 C-0.99 17 -1.98 17 -3 17 C-3.34548714 10.66606918 -2.29342747 5.89738492 0 0 Z " fill="#414141" transform="translate(323,215)"/>
<path d="M0 0 C3.63 0 7.26 0 11 0 C9.60203108 2.79593783 7.86525011 2.95173777 5 4 C4.01 4.495 4.01 4.495 3 5 C3 4.34 3 3.68 3 3 C1.02 3 -0.96 3 -3 3 C-2.01 2.67 -1.02 2.34 0 2 C0 1.34 0 0.68 0 0 Z " fill="#292929" transform="translate(438,209)"/>
<path d="M0 0 C3.96 0 7.92 0 12 0 C11.34 2.31 10.68 4.62 10 7 C9.46375 6.38125 8.9275 5.7625 8.375 5.125 C5.68896977 2.7217098 3.44585438 1.93977847 0 1 C0 0.67 0 0.34 0 0 Z " fill="#2D2D2D" transform="translate(386,209)"/>
<path d="M0 0 C3.3 0 6.6 0 10 0 C7.42215154 2.64752004 5.08351902 4.94432065 2 7 C2 6.01 2 5.02 2 4 C1.01 3.34 0.02 2.68 -1 2 C-0.67 1.34 -0.34 0.68 0 0 Z " fill="#313131" transform="translate(201,209)"/>
<path d="M0 0 C2.89932357 2.39509338 3.50168276 4.31245243 4 8 C2.68 8 1.36 8 0 8 C-1.125 6.25 -1.125 6.25 -2 4 C-1.125 1.75 -1.125 1.75 0 0 Z " fill="#3B3B3B" transform="translate(305,232)"/>
<path d="M0 0 C2 3 2 3 1.609375 6.1015625 C1.32578125 7.26429688 1.0421875 8.42703125 0.75 9.625 C0.47671875 10.79289063 0.2034375 11.96078125 -0.078125 13.1640625 C-0.38234375 14.09992188 -0.6865625 15.03578125 -1 16 C-1.66 16.33 -2.32 16.66 -3 17 C-2.48517081 11.147205 -1.54642808 5.6702363 0 0 Z " fill="#686868" transform="translate(191,245)"/>
<path d="M0 0 C3.375 4.5 3.375 4.5 3.07421875 8.109375 C3.01943359 8.86347656 2.96464844 9.61757812 2.90820312 10.39453125 C2.83537109 11.17183594 2.76253906 11.94914063 2.6875 12.75 C2.62626953 13.54277344 2.56503906 14.33554688 2.50195312 15.15234375 C2.34920979 17.10275869 2.17654756 19.05159555 2 21 C1.67 21 1.34 21 1 21 C0.67 14.07 0.34 7.14 0 0 Z " fill="#212121" transform="translate(398,219)"/>
<path d="M0 0 C1.98 0 3.96 0 6 0 C6 0.66 6 1.32 6 2 C6.99 2.33 7.98 2.66 9 3 C8.01 4.32 7.02 5.64 6 7 C5.67 6.34 5.34 5.68 5 5 C4.34 4.690625 3.68 4.38125 3 4.0625 C1 3 1 3 0 0 Z " fill="#2C2C2C" transform="translate(351,213)"/>
<path d="M0 0 C3.96 0 7.92 0 12 0 C11.67 2.31 11.34 4.62 11 7 C10.113125 6.195625 9.22625 5.39125 8.3125 4.5625 C5.61712968 2.2960841 3.57936522 1.31582634 0 1 C0 0.67 0 0.34 0 0 Z " fill="#393939" transform="translate(127,209)"/>
<path d="M0 0 C3 4 3 4 3.07421875 6.578125 C2.94660156 7.45984375 2.81898438 8.3415625 2.6875 9.25 C2.50767578 10.58804688 2.50767578 10.58804688 2.32421875 11.953125 C2.21722656 12.62859375 2.11023438 13.3040625 2 14 C1.34 14 0.68 14 0 14 C0 9.38 0 4.76 0 0 Z " fill="#484848" transform="translate(333,214)"/>
<path d="M0 0 C1.32 0.33 2.64 0.66 4 1 C3.34 2.32 2.68 3.64 2 5 C1.01 5 0.02 5 -1 5 C-1.33 7.31 -1.66 9.62 -2 12 C-2.33 12 -2.66 12 -3 12 C-2.88541307 10.56163249 -2.75790884 9.12429034 -2.625 7.6875 C-2.55539063 6.88699219 -2.48578125 6.08648437 -2.4140625 5.26171875 C-2 3 -2 3 0 0 Z " fill="#484848" transform="translate(237,209)"/>
<path d="M0 0 C2 3 2 3 1.625 5.1875 C1.41875 5.785625 1.2125 6.38375 1 7 C-0.98 7 -2.96 7 -5 7 C-3.88820837 3.66462511 -2.52588702 2.36292656 0 0 Z " fill="#1F1F1F" transform="translate(139,258)"/>
<path d="M0 0 C1.45742463 -0.08096803 2.91612807 -0.13917774 4.375 -0.1875 C5.18710937 -0.22230469 5.99921875 -0.25710937 6.8359375 -0.29296875 C7.55007813 -0.19628906 8.26421875 -0.09960938 9 0 C9.66 0.99 10.32 1.98 11 3 C10.67 3.66 10.34 4.32 10 5 C6.08788267 3.84414715 3.1254959 2.64465038 0 0 Z " fill="#383838" transform="translate(302,209)"/>
<path d="M0 0 C1.134375 0.020625 2.26875 0.04125 3.4375 0.0625 C3.4375 1.0525 3.4375 2.0425 3.4375 3.0625 C1.4575 3.7225 -0.5225 4.3825 -2.5625 5.0625 C-2.5625 4.4025 -2.5625 3.7425 -2.5625 3.0625 C-3.2225 2.4025 -3.8825 1.7425 -4.5625 1.0625 C-3.5625 0.0625 -3.5625 0.0625 0 0 Z " fill="#1F1F1F" transform="translate(314.5625,208.9375)"/>
<path d="M0 0 C0.66 0.33 1.32 0.66 2 1 C2.94934202 3.92713788 3.23176473 5.42831368 2.0625 8.3125 C1.5365625 9.1478125 1.5365625 9.1478125 1 10 C-1 8 -1 8 -1.125 5.375 C-1.08375 4.59125 -1.0425 3.8075 -1 3 C-1.66 3 -2.32 3 -3 3 C-3 2.34 -3 1.68 -3 1 C-2.01 0.67 -1.02 0.34 0 0 Z " fill="#222222" transform="translate(432,241)"/>
<path d="M0 0 C2.31 0 4.62 0 7 0 C6.34 1.32 5.68 2.64 5 4 C4.01 3.67 3.02 3.34 2 3 C1.34 4.32 0.68 5.64 0 7 C-1.125 2.25 -1.125 2.25 0 0 Z " fill="#2D2D2D" transform="translate(249,209)"/>
<path d="M0 0 C0.99 0 1.98 0 3 0 C2.67 2.31 2.34 4.62 2 7 C1.01 7.33 0.02 7.66 -1 8 C-1.04241723 5.66705225 -1.04092937 3.33297433 -1 1 C-0.67 0.67 -0.34 0.34 0 0 Z " fill="#232323" transform="translate(399,242)"/>
<path d="M0 0 C2.00720923 0.28674418 4.0085944 0.61866701 6 1 C5 3 5 3 2.0625 4.125 C-1 5 -1 5 -3 5 C-1.125 1.125 -1.125 1.125 0 0 Z " fill="#424242" transform="translate(70,239)"/>
<path d="M0 0 C2.61020066 2.61020066 2.63751674 4.37516738 3 8 C2.5625 10.375 2.5625 10.375 2 12 C0.68 11.67 -0.64 11.34 -2 11 C-1.01 11 -0.02 11 1 11 C0.84402344 10.37351563 0.68804687 9.74703125 0.52734375 9.1015625 C0.33269531 8.28429687 0.13804687 7.46703125 -0.0625 6.625 C-0.35833984 5.40683594 -0.35833984 5.40683594 -0.66015625 4.1640625 C-1 2 -1 2 0 0 Z " fill="#4C4C4C" transform="translate(252,232)"/>
<path d="M0 0 C0.66 0 1.32 0 2 0 C2.33 1.65 2.66 3.3 3 5 C1.68 5 0.36 5 -1 5 C-0.67 3.35 -0.34 1.7 0 0 Z M-3 2 C-2.34 3.32 -1.68 4.64 -1 6 C-2.65 5.67 -4.3 5.34 -6 5 C-6 4.34 -6 3.68 -6 3 C-5.01 2.67 -4.02 2.34 -3 2 Z " fill="#1B1B1B" transform="translate(89,225)"/>
<path d="M0 0 C0.66 0 1.32 0 2 0 C2 0.66 2 1.32 2 2 C2.66 2 3.32 2 4 2 C4 4.97 4 7.94 4 11 C1.54176828 7.31265242 0.98757384 4.30300029 0 0 Z " fill="#2D2D2D" transform="translate(139,216)"/>
<path d="M0 0 C0.66 1.32 1.32 2.64 2 4 C0 7 0 7 -3 8 C-3 6 -3 4 -3 2 C-2.01 1.34 -1.02 0.68 0 0 Z " fill="#1E1E1E" transform="translate(298,225)"/>
<path d="M0 0 C0.66 0 1.32 0 2 0 C0.79157144 4.43090471 -0.51668565 6.98112756 -4 10 C-4 8.02 -4 6.04 -4 4 C-3.01 4 -2.02 4 -1 4 C-0.67 2.68 -0.34 1.36 0 0 Z " fill="#1D1D1D" transform="translate(251,212)"/>
<path d="M0 0 C2.97 0 5.94 0 9 0 C9 0.66 9 1.32 9 2 C7 3.625 7 3.625 5 5 C4.34 4.01 3.68 3.02 3 2 C2.01 1.34 1.02 0.68 0 0 Z " fill="#333333" transform="translate(104,209)"/>
<path d="M0 0 C3 0 3 0 5 1 C4.67 2.32 4.34 3.64 4 5 C3.01 4.67 2.02 4.34 1 4 C0.67 4.66 0.34 5.32 0 6 C0 4.02 0 2.04 0 0 Z " fill="#1F1F1F" transform="translate(256,249)"/>
<path d="M0 0 C2.475 0.495 2.475 0.495 5 1 C4.01 2.485 4.01 2.485 3 4 C2.60986284 5.9896995 2.26797351 7.99019869 2 10 C1.67 10 1.34 10 1 10 C0.67 6.7 0.34 3.4 0 0 Z " fill="#1F1F1F" transform="translate(113,240)"/>
<path d="M0 0 C0.99 0 1.98 0 3 0 C2.40138258 2.35171131 1.73075648 4.6859378 1 7 C0.01 7.495 0.01 7.495 -1 8 C-0.67 5.36 -0.34 2.72 0 0 Z " fill="#303030" transform="translate(195,230)"/>
<path d="M0 0 C2.31 0 4.62 0 7 0 C5.35 1.32 3.7 2.64 2 4 C0.68 3.34 -0.64 2.68 -2 2 C-1.34 2 -0.68 2 0 2 C0 1.34 0 0.68 0 0 Z " fill="#292929" transform="translate(120,209)"/>
<path d="M0 0 C2 3 2 3 3 6 C1.02 6 -0.96 6 -3 6 C-2 4 -1 2 0 0 Z " fill="#383838" transform="translate(143,259)"/>
<path d="M0 0 C0.66 0.33 1.32 0.66 2 1 C2.625 3.5625 2.625 3.5625 3 6 C2.01 6 1.02 6 0 6 C-0.33 6.66 -0.66 7.32 -1 8 C-0.67 5.36 -0.34 2.72 0 0 Z " fill="#1E1E1E" transform="translate(195,224)"/>
<path d="M0 0 C1.27351308 2.54702616 0.80191925 3.4282945 0.0625 6.125 C-0.13214844 6.84945312 -0.32679688 7.57390625 -0.52734375 8.3203125 C-0.68332031 8.87460938 -0.83929688 9.42890625 -1 10 C-1.99 9.67 -2.98 9.34 -4 9 C-2.80100302 5.9168649 -1.52299523 2.93720508 0 0 Z " fill="#474747" transform="translate(252,214)"/>
<path d="M0 0 C0.78375 0.04125 1.5675 0.0825 2.375 0.125 C0.395 3.095 0.395 3.095 -1.625 6.125 C-2.615 5.465 -3.605 4.805 -4.625 4.125 C-4.625 0.73492581 -3.1763743 0.15125592 0 0 Z " fill="#313131" transform="translate(339.625,210.875)"/>
<path d="M0 0 C0.66 0.99 1.32 1.98 2 3 C4.58380177 3.25030977 4.58380177 3.25030977 7 3 C6.67 3.99 6.34 4.98 6 6 C3.69 5.34 1.38 4.68 -1 4 C-0.67 2.68 -0.34 1.36 0 0 Z " fill="#5A5A5A" transform="translate(94,257)"/>
<path d="M0 0 C2 2 2 2 2 5 C0.68 5.33 -0.64 5.66 -2 6 C-2.33 4.35 -2.66 2.7 -3 1 C-2.01 0.67 -1.02 0.34 0 0 Z " fill="#393939" transform="translate(172,245)"/>
<path d="M0 0 C0.99 0.33 1.98 0.66 3 1 C3.33 3.31 3.66 5.62 4 8 C3.34 8 2.68 8 2 8 C1.34 5.36 0.68 2.72 0 0 Z " fill="#4C4C4C" transform="translate(376,220)"/>
<path d="M0 0 C3.3 0 6.6 0 10 0 C9.67 0.99 9.34 1.98 9 3 C8.01 3 7.02 3 6 3 C6 2.34 6 1.68 6 1 C4.02 1 2.04 1 0 1 C0 0.67 0 0.34 0 0 Z " fill="#1F1F1F" transform="translate(351,212)"/>
<path d="M0 0 C1.98 0 3.96 0 6 0 C6 0.66 6 1.32 6 2 C5.34 2.66 4.68 3.32 4 4 C3.01 4 2.02 4 1 4 C0.67 2.68 0.34 1.36 0 0 Z " fill="#1F1F1F" transform="translate(79,209)"/>
</svg>
